<svg width="238px" height="81px" viewBox="0 0 240 86.72" xmlns="http://www.w3.org/2000/svg"><path d="m104.86 19.12c11.95-6.59 30.14-12.7 48.14-15.88 41.59-7.33 82.54.87 85.61 18.32 1.93 10.93-10.6 22.86-29.36 31.91 12.42-9.09 19.51-18.23 17.47-27.08-4.22-18.16-48.56-25.48-92.63-15.3-9.34 2.16-21.18 4.91-29.23 8.03z" fill="#00aa70" fill-rule="evenodd"/><g fill="#2c2c2c"><path d="m155.48 31.66a15.23 15.23 0 0 0 -20.88 0 13.79 13.79 0 0 0 -4.24 10.34 13.79 13.79 0 0 0 4.24 10.3 15.26 15.26 0 0 0 20.88 0 13.85 13.85 0 0 0 4.24-10.3 13.79 13.79 0 0 0 -4.24-10.34zm-4.48 16.68a8 8 0 0 1 -11.8 0 9.65 9.65 0 0 1 0-12.74 7.91 7.91 0 0 1 11.8 0 9.19 9.19 0 0 1 2.4 6.4 9 9 0 0 1 -2.4 6.34z"/><path d="m55.9 52.32q3.9-3.8 3.9-10.32t-4-10.18q-4-3.66-11.48-3.66h-9.88v28h9.56q8-.04 11.9-3.84zm-15.22-18.72h3.48c3.17 0 5.53.74 7.06 2.22a8.43 8.43 0 0 1 2.3 6.34 8.21 8.21 0 0 1 -2.3 6.28c-1.53 1.44-3.73 2.16-6.58 2.16h-4z"/><path d="m31.2 56.12-12.08-28h-6l-12.12 28h6.64l2.6-6h11.76l2.6 6zm-18.6-11.52 3.52-8.12 3.48 8.12z"/><path d="m194.08 28.16h6.24v27.96h-6.24z"/><path d="m181.86 46.12q5.32-2 5.32-8.68 0-4.87-2.78-7.08t-9.3-2.2h-10.6v28h6.24v-8.96h4.32l6.2 8.92h7.68zm-2.2-5.36c-.77.69-2.23 1-4.36 1h-4.56v-8.24h4.68a7.68 7.68 0 0 1 4.2.84 3.54 3.54 0 0 1 1.2 3.1 4.23 4.23 0 0 1 -1.16 3.3z"/><path d="m118.06 39.34a20 20 0 0 1 -5.08-1.7 2.23 2.23 0 0 1 -1.1-1.94 2.41 2.41 0 0 1 .9-2 3.78 3.78 0 0 1 2.46-.74 12.31 12.31 0 0 1 7.52 2.76l3.16-4.56a15.06 15.06 0 0 0 -4.92-2.68 17.17 17.17 0 0 0 -5.6-1 11.52 11.52 0 0 0 -7.14 2.16 7.23 7.23 0 0 0 -2.86 6.14q0 4 2.26 5.84a17.91 17.91 0 0 0 7.14 3 13.75 13.75 0 0 1 4.12 1.5 2.35 2.35 0 0 1 1 2 2.38 2.38 0 0 1 -1 2 4.33 4.33 0 0 1 -2.7.74q-3.84 0-8.36-4l-3.72 4.56a17.17 17.17 0 0 0 12 4.92 11.24 11.24 0 0 0 7.42-2.34 7.55 7.55 0 0 0 2.82-6.1 7.25 7.25 0 0 0 -2.2-5.72 14.37 14.37 0 0 0 -6.12-2.84z"/><path d="m75.12 45.96-7.12-17.8h-6.76l11.24 27.96h5.28l11.24-27.96h-6.76z"/><path d="m93.12 28.16h6.24v27.96h-6.24z"/><path d="m5.94 69.59-4.6 10.41h1.11l1.21-2.79h5.6l1.21 2.79h1.12l-4.59-10.41zm-1.94 6.75 2.42-5.6 2.41 5.6z"/><path d="m19.21 76.29a3 3 0 0 1 -.7 2.09 2.39 2.39 0 0 1 -1.88.76 2.18 2.18 0 0 1 -1.63-.64 2.72 2.72 0 0 1 -.59-1.88v-4.44h-1v4.54a3.39 3.39 0 0 0 .86 2.51 3.14 3.14 0 0 0 2.33.86 3.25 3.25 0 0 0 1.61-.39 3 3 0 0 0 1.11-1.11v1.41h1v-7.82h-1z"/><path d="m27.53 76.05a13 13 0 0 0 -1.45-.35c-.49-.09-.87-.18-1.15-.26a1.79 1.79 0 0 1 -.7-.4 1 1 0 0 1 -.28-.71 1.11 1.11 0 0 1 .5-.94 2.49 2.49 0 0 1 1.47-.39 3.7 3.7 0 0 1 2.23.67l.44-.85a3.94 3.94 0 0 0 -1.2-.53 5.72 5.72 0 0 0 -1.47-.2 3.45 3.45 0 0 0 -2.2.63 2 2 0 0 0 -.79 1.61 1.77 1.77 0 0 0 .4 1.23 2.2 2.2 0 0 0 1 .64 14.06 14.06 0 0 0 1.48.36 8.65 8.65 0 0 1 1.11.25 1.64 1.64 0 0 1 .69.37.87.87 0 0 1 .27.68 1.07 1.07 0 0 1 -.49.94 2.79 2.79 0 0 1 -1.53.34 4.72 4.72 0 0 1 -1.5-.25 3.62 3.62 0 0 1 -1.19-.63l-.46.83a3.58 3.58 0 0 0 1.31.69 5.45 5.45 0 0 0 1.76.28 3.86 3.86 0 0 0 2.3-.6 1.93 1.93 0 0 0 .82-1.63 1.69 1.69 0 0 0 -.39-1.19 2.09 2.09 0 0 0 -.98-.59z"/><path d="m37.48 73.69a3.26 3.26 0 0 0 -1.25-1.17 3.84 3.84 0 0 0 -1.74-.4 3.9 3.9 0 0 0 -1.94.48 3.44 3.44 0 0 0 -1.36 1.34 4.13 4.13 0 0 0 0 3.94 3.46 3.46 0 0 0 1.36 1.35 3.86 3.86 0 0 0 1.94.49 3.7 3.7 0 0 0 1.7-.39 3.06 3.06 0 0 0 1.24-1.13v1a3 3 0 0 1 -.67 2.15 2.86 2.86 0 0 1 -2.12.69 4.75 4.75 0 0 1 -1.64-.28 3.82 3.82 0 0 1 -1.33-.76l-.52.8a3.94 3.94 0 0 0 1.53.89 6.24 6.24 0 0 0 2 .32 3.81 3.81 0 0 0 2.84-1 4.08 4.08 0 0 0 .94-3v-6.83h-1zm-.39 3.7a2.59 2.59 0 0 1 -1 1 3.22 3.22 0 0 1 -3 0 2.73 2.73 0 0 1 -1-1 3.24 3.24 0 0 1 0-3 2.63 2.63 0 0 1 1-1 3.14 3.14 0 0 1 1.48-.35 3 3 0 0 1 1.48.36 2.54 2.54 0 0 1 1 1 2.94 2.94 0 0 1 .37 1.49 2.9 2.9 0 0 1 -.33 1.5z"/><path d="m46.69 72.63a3.64 3.64 0 0 0 -5.1 1.37 4.35 4.35 0 0 0 -.48 2.06 4.2 4.2 0 0 0 .5 2.05 3.73 3.73 0 0 0 1.39 1.47 4.06 4.06 0 0 0 2.06.51 4.13 4.13 0 0 0 1.66-.33 3.29 3.29 0 0 0 1.26-1l-.58-.69a2.81 2.81 0 0 1 -1 .77 3 3 0 0 1 -1.29.26 2.93 2.93 0 0 1 -2.11-.7 2.84 2.84 0 0 1 -.91-2h6.33v-.3a4.41 4.41 0 0 0 -.42-2.1 3.64 3.64 0 0 0 -1.31-1.37zm-4.56 3a2.93 2.93 0 0 1 .87-1.88 2.71 2.71 0 0 1 3.68 0 2.93 2.93 0 0 1 .84 1.89z"/><path d="m56.23 72.88v-.7h-5.98v.9h4.67l-4.76 6.23v.71h6.15v-.88h-4.84z"/><path d="m63.34 72.63a3.74 3.74 0 0 0 -3.77 0 3.59 3.59 0 0 0 -1.32 1.37 4.24 4.24 0 0 0 -.49 2.06 4.1 4.1 0 0 0 .51 2.05 3.63 3.63 0 0 0 1.4 1.43 4.38 4.38 0 0 0 3.72.18 3.29 3.29 0 0 0 1.26-1l-.58-.69a2.66 2.66 0 0 1 -1 .77 3 3 0 0 1 -1.29.26 3 3 0 0 1 -2.07-.75 2.84 2.84 0 0 1 -.91-2h6.33v-.21a4.41 4.41 0 0 0 -.48-2.1 3.57 3.57 0 0 0 -1.31-1.37zm-4.56 3a2.93 2.93 0 0 1 .84-1.89 2.71 2.71 0 0 1 3.68 0 2.84 2.84 0 0 1 .84 1.89z"/><path d="m67.68 72.18h1.02v7.83h-1.02z"/><path d="m68.2 69a.77.77 0 0 0 -.75.75.75.75 0 0 0 1.28.54.8.8 0 0 0 .27-.59.74.74 0 0 0 -.22-.52.73.73 0 0 0 -.58-.18z"/><path d="m73.72 73.43a2.84 2.84 0 0 1 1.48-.38 2.67 2.67 0 0 1 1.25.29 2.39 2.39 0 0 1 1 .87l.76-.54a2.94 2.94 0 0 0 -1.22-1.15 3.66 3.66 0 0 0 -1.74-.4 4 4 0 0 0 -2 .51 3.6 3.6 0 0 0 -1.44 1.37 4.42 4.42 0 0 0 0 4.12 3.5 3.5 0 0 0 1.38 1.42 4 4 0 0 0 2 .51 3.84 3.84 0 0 0 1.74-.39 3 3 0 0 0 1.22-1.16l-.75-.5a2.39 2.39 0 0 1 -1 .87 2.79 2.79 0 0 1 -1.25.28 2.84 2.84 0 0 1 -1.48-.38 2.7 2.7 0 0 1 -1-1.07 3.74 3.74 0 0 1 0-3.2 2.7 2.7 0 0 1 1.05-1.07z"/><path d="m84.48 72.12a3.66 3.66 0 0 0 -1.69.38 2.75 2.75 0 0 0 -1.14 1v-4.5h-1v11h1v-4.09a2.87 2.87 0 0 1 .71-2.08 2.53 2.53 0 0 1 1.93-.75 2.15 2.15 0 0 1 1.68.64 2.64 2.64 0 0 1 .59 1.86v4.42h1v-4.53a3.41 3.41 0 0 0 -.82-2.47 3 3 0 0 0 -2.26-.88z"/><path d="m94.61 72.12a3.55 3.55 0 0 0 -1.72.4 2.8 2.8 0 0 0 -1.15 1.11v-1.45h-1v7.82h1v-4.09a2.91 2.91 0 0 1 .71-2.08 2.53 2.53 0 0 1 1.93-.75 2.15 2.15 0 0 1 1.68.64 2.6 2.6 0 0 1 .59 1.86v4.42h1v-4.53a3.41 3.41 0 0 0 -.78-2.47 3 3 0 0 0 -2.26-.88z"/><path d="m105.85 72.63a3.51 3.51 0 0 0 -1.88-.51 3.55 3.55 0 0 0 -3.21 1.88 4.35 4.35 0 0 0 -.48 2.06 4.2 4.2 0 0 0 .5 2.05 3.7 3.7 0 0 0 1.4 1.43 4.13 4.13 0 0 0 2.07.51 4.05 4.05 0 0 0 1.65-.33 3.15 3.15 0 0 0 1.26-1l-.57-.69a2.81 2.81 0 0 1 -1 .77 3.11 3.11 0 0 1 -1.3.26 3 3 0 0 1 -2.07-.75 2.87 2.87 0 0 1 -.9-2h6.32v-.33a4.29 4.29 0 0 0 -.48-2.06 3.5 3.5 0 0 0 -1.31-1.29zm-4.55 3a2.93 2.93 0 0 1 .84-1.89 2.51 2.51 0 0 1 1.86-.74 2.54 2.54 0 0 1 1.85.72 2.93 2.93 0 0 1 .84 1.89z"/><path d="m113.26 79.08a1.77 1.77 0 0 1 -.61.1 1.28 1.28 0 0 1 -1-.36 1.56 1.56 0 0 1 -.33-1.07v-4.67h2.3v-.9h-2.3v-1.71h-1v1.71h-1.32v.9h1.36v4.73a2.31 2.31 0 0 0 .57 1.68 2.16 2.16 0 0 0 1.64.6 2.84 2.84 0 0 0 .88-.14 1.9 1.9 0 0 0 .71-.41l-.36-.76a1.44 1.44 0 0 1 -.54.3z"/><path d="m121.09 72.63a3.51 3.51 0 0 0 -1.88-.51 3.55 3.55 0 0 0 -3.21 1.88 4.24 4.24 0 0 0 -.49 2.06 4.1 4.1 0 0 0 .51 2.05 3.63 3.63 0 0 0 1.4 1.43 4.38 4.38 0 0 0 3.72.18 3.29 3.29 0 0 0 1.26-1l-.58-.69a2.66 2.66 0 0 1 -1 .77 3 3 0 0 1 -1.29.26 3 3 0 0 1 -2.07-.75 2.79 2.79 0 0 1 -.9-2h6.32v-.21a4.41 4.41 0 0 0 -.48-2.1 3.57 3.57 0 0 0 -1.31-1.37zm-4.55 3a2.84 2.84 0 0 1 .84-1.89 2.7 2.7 0 0 1 3.67 0 2.89 2.89 0 0 1 .85 1.89z"/><path d="m137.29 74.64a2.53 2.53 0 0 0 1.13-.9 2.57 2.57 0 0 0 .41-1.47 2.34 2.34 0 0 0 -.93-2 4.24 4.24 0 0 0 -2.61-.7h-4.29v10.43h4.63a4.56 4.56 0 0 0 2.82-.73 2.42 2.42 0 0 0 1-2.06 2.47 2.47 0 0 0 -2.07-2.59zm-5.29-4.14h3.21a3.17 3.17 0 0 1 1.88.48 1.66 1.66 0 0 1 .66 1.41 1.63 1.63 0 0 1 -.66 1.41 3.17 3.17 0 0 1 -1.88.48h-3.21zm5.59 8.13a3.55 3.55 0 0 1 -2 .48h-3.59v-3.92h3.55q2.73 0 2.73 2a1.68 1.68 0 0 1 -.68 1.44z"/><path d="m147.12 72.63a3.57 3.57 0 0 0 -1.89-.51 3.55 3.55 0 0 0 -3.23 1.88 4.35 4.35 0 0 0 -.48 2.06 4.2 4.2 0 0 0 .5 2.05 3.73 3.73 0 0 0 1.41 1.43 4.06 4.06 0 0 0 2.06.51 4.13 4.13 0 0 0 1.66-.33 3.18 3.18 0 0 0 1.25-1l-.57-.69a2.81 2.81 0 0 1 -1 .77 3 3 0 0 1 -1.29.26 2.93 2.93 0 0 1 -2.07-.75 2.84 2.84 0 0 1 -.91-2h6.32v-.33a4.29 4.29 0 0 0 -.48-2.06 3.54 3.54 0 0 0 -1.28-1.29zm-4.56 3a2.93 2.93 0 0 1 .84-1.89 2.71 2.71 0 0 1 3.68 0 2.93 2.93 0 0 1 .84 1.89z"/><path d="m152.48 73.72v-1.54h-1v7.82h1v-4a3.11 3.11 0 0 1 .67-2.13 2.42 2.42 0 0 1 1.87-.76h.25v-1a3.61 3.61 0 0 0 -1.76.4 2.51 2.51 0 0 0 -1.03 1.21z"/><path d="m160.52 72.12a5.05 5.05 0 0 0 -1.7.28 4.06 4.06 0 0 0 -1.38.78l.46.79a3.6 3.6 0 0 1 1.14-.68 4 4 0 0 1 1.38-.24 2.19 2.19 0 0 1 1.59.52 2.05 2.05 0 0 1 .55 1.55v.47h-2.4a3.35 3.35 0 0 0 -2.22.61 2.2 2.2 0 0 0 .05 3.26 3 3 0 0 0 2 .63 3.42 3.42 0 0 0 1.59-.34 2.35 2.35 0 0 0 1-1v1.25h1v-4.84a3 3 0 0 0 -.79-2.27 3.13 3.13 0 0 0 -2.27-.77zm2 5.54a2.47 2.47 0 0 1 -.92 1.19 2.63 2.63 0 0 1 -1.48.41 2.27 2.27 0 0 1 -1.41-.4 1.3 1.3 0 0 1 -.5-1.08c0-.93.65-1.4 1.94-1.4h2.37z"/><path d="m169.81 79.08a1.77 1.77 0 0 1 -.61.1 1.28 1.28 0 0 1 -1-.36 1.56 1.56 0 0 1 -.34-1.07v-4.67h2.3v-.9h-2.3v-1.71h-1v1.71h-1.35v.9h1.35v4.73a2.27 2.27 0 0 0 .58 1.68 2.16 2.16 0 0 0 1.64.6 2.89 2.89 0 0 0 .92-.09 2 2 0 0 0 .71-.41l-.36-.76a1.44 1.44 0 0 1 -.54.25z"/><path d="m178.56 76.29a3 3 0 0 1 -.69 2.09 2.41 2.41 0 0 1 -1.89.76 2.21 2.21 0 0 1 -1.68-.64 2.72 2.72 0 0 1 -.59-1.88v-4.44h-1v4.54a3.39 3.39 0 0 0 .86 2.51 3.16 3.16 0 0 0 2.33.86 3.25 3.25 0 0 0 1.61-.39 3 3 0 0 0 1.11-1.11v1.41h1v-7.82h-1z"/><path d="m186.67 72.12a3.48 3.48 0 0 0 -1.71.4 2.82 2.82 0 0 0 -1.16 1.11v-1.45h-1v7.82h1v-4.09a2.91 2.91 0 0 1 .71-2.08 2.55 2.55 0 0 1 1.94-.75 2.15 2.15 0 0 1 1.68.64 2.64 2.64 0 0 1 .59 1.86v4.42h1v-4.53a3.41 3.41 0 0 0 -.84-2.49 3 3 0 0 0 -2.21-.86z"/><path d="m199.1 73.69a3.19 3.19 0 0 0 -1.25-1.17 3.84 3.84 0 0 0 -1.74-.4 3.9 3.9 0 0 0 -1.94.48 3.44 3.44 0 0 0 -1.36 1.34 4.13 4.13 0 0 0 0 3.94 3.49 3.49 0 0 0 1.37 1.35 3.8 3.8 0 0 0 1.93.49 3.7 3.7 0 0 0 1.7-.39 3.06 3.06 0 0 0 1.24-1.13v1a3 3 0 0 1 -.67 2.15 2.85 2.85 0 0 1 -2.11.69 4.77 4.77 0 0 1 -1.65-.28 3.92 3.92 0 0 1 -1.33-.79l-.52.8a4.1 4.1 0 0 0 1.53.89 6.28 6.28 0 0 0 2 .32 3.8 3.8 0 0 0 2.84-1 4.08 4.08 0 0 0 1-3v-6.8h-1zm-.38 3.7a2.68 2.68 0 0 1 -1 1 3.06 3.06 0 0 1 -1.48.36 3 3 0 0 1 -1.47-.36 2.59 2.59 0 0 1 -1-1 3.17 3.17 0 0 1 0-3 2.51 2.51 0 0 1 1-1 3.26 3.26 0 0 1 3 0 2.67 2.67 0 0 1 1 1 3 3 0 0 1 .36 1.49 3 3 0 0 1 -.41 1.51z"/></g></svg>