<?xml version="1.0" encoding="UTF-8" standalone="no"?>
<!-- Created with Inkscape (http://www.inkscape.org/) -->
<svg
   xmlns:dc="http://purl.org/dc/elements/1.1/"
   xmlns:cc="http://creativecommons.org/ns#"
   xmlns:rdf="http://www.w3.org/1999/02/22-rdf-syntax-ns#"
   xmlns:svg="http://www.w3.org/2000/svg"
   xmlns="http://www.w3.org/2000/svg"
   xmlns:sodipodi="http://sodipodi.sourceforge.net/DTD/sodipodi-0.dtd"
   xmlns:inkscape="http://www.inkscape.org/namespaces/inkscape"
   width="102.95513"
   height="39.708248"
   id="svg2474"
   sodipodi:version="0.32"
   inkscape:version="0.46"
   version="1.0"
   sodipodi:docname="Belimo-Logo.svg"
   inkscape:output_extension="org.inkscape.output.svg.inkscape">
  <defs
     id="defs2476">
    <clipPath
       clipPathUnits="userSpaceOnUse"
       id="clipPath43">
      <path
         d="M 484.439,27.092 L 568.862,27.092 L 568.862,60.711 L 484.439,60.711 L 484.439,27.092 z"
         id="path45" />
    </clipPath>
    <inkscape:perspective
       sodipodi:type="inkscape:persp3d"
       inkscape:vp_x="0 : 526.18109 : 1"
       inkscape:vp_y="0 : 1000 : 0"
       inkscape:vp_z="744.09448 : 526.18109 : 1"
       inkscape:persp3d-origin="372.04724 : 350.78739 : 1"
       id="perspective2482" />
  </defs>
  <sodipodi:namedview
     id="base"
     pagecolor="#ffffff"
     bordercolor="#666666"
     borderopacity="1.0"
     inkscape:pageopacity="0.0"
     inkscape:pageshadow="2"
     inkscape:zoom="5.4975405"
     inkscape:cx="51.477565"
     inkscape:cy="19.854123"
     inkscape:document-units="px"
     inkscape:current-layer="layer1"
     showgrid="false"
     inkscape:window-width="640"
     inkscape:window-height="667"
     inkscape:window-x="110"
     inkscape:window-y="67" />
  <metadata
     id="metadata2479">
    <rdf:RDF>
      <cc:Work
         rdf:about="">
        <dc:format>image/svg+xml</dc:format>
        <dc:type
           rdf:resource="http://purl.org/dc/dcmitype/StillImage" />
      </cc:Work>
    </rdf:RDF>
  </metadata>
  <g
     inkscape:label="Ebene 1"
     inkscape:groupmode="layer"
     id="layer1"
     transform="translate(-268.52243,-532.50806)">
    <g
       id="g27"
       transform="matrix(1.25,0,0,-1.25,368.97493,571.77006)">
      <path
         d="M 0,0 L -80.005,0"
         style="fill:#ff7c0e;fill-opacity:1;fill-rule:nonzero;stroke:#ff7c0e;stroke-width:0.71399999;stroke-linecap:butt;stroke-linejoin:miter;stroke-miterlimit:3.86400008;stroke-dasharray:none;stroke-opacity:1"
         id="path29" />
    </g>
    <g
       id="g31"
       transform="matrix(1.25,0,0,-1.25,356.21906,532.50806)">
      <path
         d="M 0,0 L 9.679,0 L 0.815,-9.067 L -8.832,-9.067 L 0,0 z"
         style="fill:#ff7c0e;fill-opacity:1;fill-rule:nonzero;stroke:none"
         id="path33" />
    </g>
    <g
       id="g35"
       transform="matrix(1.25,0,0,-1.25,340.53094,532.50806)">
      <path
         d="M 0,0 L 9.678,0 L 0.815,-9.067 L -8.832,-9.067 L 0,0 z"
         style="fill:#ff7c0e;fill-opacity:1;fill-rule:nonzero;stroke:none"
         id="path37" />
    </g>
    <g
       transform="matrix(1.25,0,0,-1.25,-339.34044,608.39644)"
       id="g39">
      <g
         id="g41"
         clip-path="url(#clipPath43)">
        <g
           id="g47"
           transform="translate(497.7385,33.7543)">
          <path
             d="M 0,0 C -0.927,-0.458 -1.997,-0.58 -3.087,-0.601 C -4.259,-0.621 -9.434,-0.601 -9.434,-0.601 C -10.085,-0.53 -10.666,-0.183 -10.89,0.673 C -10.972,0.988 -10.993,1.487 -10.993,1.487 L -11.003,12.082 C -11.003,12.082 -10.962,13.305 -10.993,13.917 C -10.993,14.762 -10.809,15.414 -10.065,15.852 C -9.362,16.229 -8.313,16.056 -7.773,16.117 L -2.252,16.107 C -0.449,16.056 1.181,15.149 1.793,13.529 C 2.302,12.194 2.16,10.412 1.181,9.362 C 0.846,8.904 -0.041,8.395 -0.449,8.344 C 0.417,8.039 0.622,7.885 0.957,7.61 C 2.262,6.56 2.72,4.921 2.444,3.332 C 2.21,1.955 1.262,0.602 0,0 M -2.19,2.72 C -2.455,2.557 -2.781,2.405 -3.301,2.354 C -3.525,2.334 -4.085,2.334 -4.085,2.334 L -7.253,2.323 L -7.253,6.602 C -5.94,6.612 -3.606,6.612 -3.606,6.612 C -3.606,6.612 -3.046,6.582 -2.69,6.511 C -2.007,6.357 -1.385,5.735 -1.263,5.043 C -1.151,4.127 -1.385,3.148 -2.19,2.72 M -2.323,9.882 C -2.965,9.516 -3.801,9.557 -4.564,9.566 L -5.022,9.566 L -7.295,9.566 L -7.305,13.061 L -3.912,13.051 C -3.912,13.051 -2.873,12.99 -2.466,12.867 C -1.854,12.602 -1.599,11.96 -1.559,11.349 C -1.58,10.799 -1.844,10.157 -2.323,9.882"
             style="fill:#000000;fill-opacity:1;fill-rule:evenodd;stroke:none"
             id="path49" />
        </g>
        <g
           id="g51"
           transform="translate(562.0923,33.5201)">
          <path
             d="M 0,0 C -2.782,-1.232 -6.551,-1.08 -8.893,0.999 C -11.828,3.556 -12.438,7.875 -11.297,11.471 C -10.503,13.927 -8.242,16.026 -5.674,16.483 C -2.395,17.145 1.12,16.3 3.107,13.519 C 5.134,10.738 5.155,5.827 3.21,2.791 C 2.395,1.539 1.232,0.642 0,0 M -1.609,2.914 C -2.956,2.241 -4.941,2.272 -6.082,3.301 C -8.13,5.277 -8.303,8.589 -7.264,11.125 C -6.662,12.449 -5.288,13.478 -3.84,13.519 C -2.302,13.641 -0.794,12.826 -0.071,11.421 C 0.866,9.526 0.877,7.071 0.193,5.064 C -0.164,4.248 -0.754,3.352 -1.609,2.914"
             style="fill:#000000;fill-opacity:1;fill-rule:evenodd;stroke:none"
             id="path53" />
        </g>
        <g
           id="g55"
           transform="translate(512.1229,33.2858)">
          <path
             d="M 0,0 C -0.417,-0.132 -0.876,-0.143 -0.876,-0.143 L -8.496,-0.143 L -8.955,-0.143 C -9.454,-0.081 -9.933,0.357 -10.147,0.784 C -10.392,1.62 -10.32,1.752 -10.35,2.292 L -10.35,15.128 C -10.269,15.913 -10.065,16.208 -9.434,16.504 C -8.924,16.575 -8.424,16.585 -8.424,16.585 L -0.571,16.575 C 0.276,16.504 0.601,16.168 0.754,15.557 C 0.896,15.026 0.744,14.508 0.408,14.11 C 0.061,13.774 -0.367,13.672 -0.825,13.621 L -6.021,13.621 L -6.755,13.621 L -6.755,10.055 C -4.808,10.065 -2.731,10.055 -0.774,10.055 C -0.163,10.055 0.305,9.811 0.611,9.291 C 0.846,8.792 0.825,8.13 0.438,7.702 C 0.234,7.427 -0.214,7.151 -0.622,7.151 L -0.835,7.151 L -6.755,7.151 L -6.755,2.873 C -6.755,2.873 -2.72,2.883 -0.591,2.843 C 0.01,2.832 0.611,2.455 0.825,1.885 C 1.13,1.141 0.692,0.286 0,0"
             style="fill:#000000;fill-opacity:1;fill-rule:nonzero;stroke:none"
             id="path57" />
        </g>
        <g
           id="g59"
           transform="translate(524.1137,33.4901)">
          <path
             d="M 0,0 C -0.428,-0.408 -1.161,-0.327 -1.161,-0.327 L -7.773,-0.327 L -8.252,-0.327 C -8.955,-0.256 -9.719,0.213 -9.943,0.926 L -10.065,1.68 L -10.065,14.64 C -9.963,15.709 -9.525,16.228 -8.893,16.432 C -8.343,16.636 -7.61,16.575 -7.111,16.269 C -6.561,15.821 -6.378,15.27 -6.347,14.568 L -6.347,2.669 L -6.164,2.669 C -6.164,2.669 -2.801,2.659 -0.948,2.669 C -0.336,2.567 0.061,2.333 0.275,1.976 C 0.692,1.365 0.56,0.387 0,0"
             style="fill:#000000;fill-opacity:1;fill-rule:nonzero;stroke:none"
             id="path61" />
        </g>
        <g
           id="g63"
           transform="translate(527.6282,32.9494)">
          <path
             d="M 0,0 C -0.795,-0.153 -1.498,0.113 -1.966,0.775 C -2.242,1.152 -2.353,1.743 -2.374,2.191 L -2.374,15.333 C -2.292,16.809 -1.202,17.044 -0.896,17.095 C -0.295,17.197 0.377,17.145 0.764,16.656 C 1.171,16.351 1.314,15.872 1.345,15.373 L 1.345,2.833 L 1.345,2.395 C 1.345,1.223 1.192,0.286 0,0"
             style="fill:#000000;fill-opacity:1;fill-rule:nonzero;stroke:none"
             id="path65" />
        </g>
        <g
           id="g67"
           transform="translate(548.3794,34.6411)">
          <path
             d="M 0,0 C -0.041,-1.019 -0.468,-1.477 -1.09,-1.661 C -1.681,-1.844 -2.352,-1.671 -2.75,-1.253 C -3.117,-0.866 -3.208,-0.417 -3.208,-0.061 C -3.269,0.703 -3.26,10.768 -3.26,10.768 C -3.26,10.727 -5.836,0.479 -5.836,0.479 C -5.836,0.479 -5.99,-0.133 -6.164,-0.591 C -6.52,-1.477 -7.222,-1.702 -8.006,-1.712 C -8.822,-1.732 -9.921,-1.63 -10.36,-0.784 C -10.36,-0.784 -10.712,-0.148 -10.91,0.642 L -13.447,10.717 L -13.447,10.207 L -13.447,0.357 L -13.447,-0.255 C -13.518,-1.172 -14.037,-1.529 -14.639,-1.692 C -15.188,-1.804 -15.801,-1.702 -16.156,-1.375 C -16.544,-1.09 -16.656,-0.764 -16.757,0.02 L -16.757,12.836 C -16.809,14.13 -16.156,14.843 -15.546,15.098 C -14.486,15.494 -12.988,15.577 -11.959,14.935 C -11.531,14.629 -11.247,13.987 -11.043,13.376 C -10.87,12.836 -10.737,12.225 -10.737,12.225 L -8.342,2.292 L -5.724,13.427 C -5.724,13.427 -5.674,13.651 -5.552,13.977 C -5.358,14.456 -4.97,15.067 -4.135,15.25 C -3.158,15.413 -1.781,15.515 -0.885,14.955 C -0.112,14.395 0.031,13.62 0,12.836 L 0,0 z"
             style="fill:#000000;fill-opacity:1;fill-rule:evenodd;stroke:none"
             id="path69" />
        </g>
        <g
           id="g71"
           transform="translate(567.7677,47.4736)">
          <path
             d="M 0,0 L -0.478,0 C -0.539,0.122 -0.58,0.193 -0.754,0.51 C -0.815,0.632 -0.876,0.724 -0.968,0.724 C -1.08,0.713 -1.16,0.724 -1.16,0.724 L -1.16,0 L -1.57,0 L -1.57,1.895 C -1.57,1.895 -0.673,1.905 -0.561,1.874 C -0.235,1.823 -0.183,1.65 -0.123,1.416 C -0.092,1.08 -0.276,0.815 -0.571,0.805 C -0.53,0.784 -0.366,0.754 -0.255,0.428 C -0.163,0.276 -0.143,0.163 -0.071,0.071 C -0.061,0.02 0,0 0,0 M -1.16,1.538 L -1.172,1.111 L -0.733,1.111 C -0.632,1.111 -0.561,1.161 -0.561,1.325 C -0.561,1.416 -0.58,1.538 -0.723,1.538 L -1.16,1.538 z"
             style="fill:#000000;fill-opacity:1;fill-rule:evenodd;stroke:none"
             id="path73" />
        </g>
        <g
           id="g75"
           transform="translate(565.1594,48.4005)">
          <path
             d="M 0,0 C 0,0.948 0.796,1.752 1.743,1.752 C 2.689,1.752 3.495,0.948 3.495,0 C 3.495,-0.957 2.689,-1.742 1.743,-1.742 C 0.796,-1.742 0,-0.957 0,0 M 0.306,0 C 0.306,0.774 0.968,1.416 1.743,1.416 C 2.516,1.416 3.189,0.774 3.189,0 C 3.189,-0.764 2.516,-1.395 1.743,-1.395 C 0.968,-1.395 0.306,-0.764 0.306,0"
             style="fill:#000000;fill-opacity:1;fill-rule:evenodd;stroke:none"
             id="path77" />
        </g>
      </g>
    </g>
  </g>
</svg>
