<?xml version="1.0" encoding="utf-8"?>
<!-- Generator: Adobe Illustrator 16.0.4, SVG Export Plug-In . SVG Version: 6.00 Build 0)  -->
<!DOCTYPE svg PUBLIC "-//W3C//DTD SVG 1.1//EN" "http://www.w3.org/Graphics/SVG/1.1/DTD/svg11.dtd">
<svg version="1.1" id="Ebene_1" xmlns="http://www.w3.org/2000/svg" xmlns:xlink="http://www.w3.org/1999/xlink" x="0px" y="0px"
	 width="501.333px" height="137.333px" viewBox="0 0 501.333 137.333" enable-background="new 0 0 501.333 137.333"
	 xml:space="preserve">
<g>
	<defs>
		<rect id="SVGID_1_" x="3.666" y="2.834" width="495.069" height="132.086"/>
	</defs>
	<clipPath id="SVGID_2_">
		<use xlink:href="#SVGID_1_"  overflow="visible"/>
	</clipPath>
	<path clip-path="url(#SVGID_2_)" fill="#FF7900" d="M13.753,31.148v-0.15c0-10.721,7.667-19.327,18.072-19.327
		c6.257,0,10.95,2.742,15.328,6.806l6.183-7.12C48.096,6.354,41.99,2.834,31.9,2.834c-16.579,0-28.236,12.75-28.236,28.313v0.158
		c0,15.725,11.892,28.156,27.847,28.156c10.25,0,16.503-3.75,22.215-9.695l-6.178-6.259c-4.694,4.38-8.998,7.037-15.722,7.037
		C21.346,50.545,13.753,41.864,13.753,31.148 M103.768,58.524h10.172L89.848,3.383H80.93L56.836,58.524h9.859l5.63-13.22h19.252
		l2.748-8.521H75.843l9.39-21.901l9.465,21.901h-0.01l3.609,8.718L103.768,58.524L103.768,58.524z M154.586,22.466
		c0,5.714-4.534,9.778-11.812,9.778h-11.183v-19.71h11.183c7.196,0,11.812,3.366,11.812,9.778V22.466z M164.362,22.232v-0.154
		c0-11.031-7.975-18.306-20.804-18.306H121.97v54.752h9.622V40.927h10.87C154.509,40.927,164.362,34.514,164.362,22.232
		 M173.891,58.524h9.619V3.772h-9.619V58.524z M219.665,12.693h17.362V3.772H192.6v8.921h17.364v45.831h9.7L219.665,12.693
		L219.665,12.693z M281.027,58.524H291.2L267.104,3.383h-8.917L234.09,58.524h9.861l5.629-13.22h19.249l2.75-8.521H253.1
		l9.387-21.901l9.463,21.901h-0.009l3.528,8.521L281.027,58.524z M299.469,58.524h38.404v-8.757h-28.787V3.772h-9.617V58.524z
		 M346.782,58.524h40.984v-8.601h-31.365V35.217h27.461v-8.606h-27.461V12.378h30.977V3.772h-40.596V58.524z M437.668,58.524h8.049
		V3.772h-9.461v37.857L406.92,3.772h-8.916v54.752h9.465v-38.95L437.668,58.524L437.668,58.524z M498.735,12.693V3.772h-44.426
		v8.921h17.361v45.831h9.699V12.693H498.735z"/>
</g>
<path fill="#B7B8B8" d="M283.972,78.913l-24.046,55.045h9.842l5.619-13.199h18.376l3.653-8.508h-18.514l9.368-21.862l9.284,21.866
	l9.215,21.703h10.15l-24.043-55.045H283.972z"/>
<g>
	<defs>
		<rect id="SVGID_3_" x="3.666" y="2.834" width="495.069" height="132.086"/>
	</defs>
	<clipPath id="SVGID_4_">
		<use xlink:href="#SVGID_3_"  overflow="visible"/>
	</clipPath>
	<path clip-path="url(#SVGID_4_)" fill="#B7B8B8" d="M323.413,133.982h38.406v-8.761h-28.787v-45.99h-9.619V133.982L323.413,133.982
		z M235.396,134.92c10.244,0,16.502-3.754,22.218-9.699l-6.188-6.258c-4.688,4.379-8.992,7.035-15.716,7.035
		c-10.484,0-18.071-8.682-18.071-19.393v-0.158c0-10.717,7.669-19.322,18.071-19.322c6.257,0,10.949,2.74,15.328,6.807l6.175-7.116
		c-5.238-5.007-11.336-8.522-21.428-8.522c-16.579,0-28.236,12.746-28.236,28.313v0.154
		C207.55,122.485,219.438,134.92,235.396,134.92 M186.854,133.982h9.618V79.231h-9.618V133.982z M146.674,87.989
		c11.499,0,19.009,7.903,19.009,18.618v0.154c0,10.717-7.51,18.46-19.009,18.46h-10.791V87.989H146.674z M126.26,133.982h20.414
		c17.211,0,29.098-11.972,29.098-27.375v-0.157c0-15.41-11.887-27.219-29.098-27.219H126.26V133.982z M74.377,133.982h40.984v-8.606
		h-31.36v-14.703h27.453v-8.604H84.001V87.833h30.972v-8.602H74.377V133.982z M6.874,133.982h9.467V94.87l17.127,25.655h0.313
		l17.286-25.806v39.263h9.624V79.231h-10.25L33.78,105.122L17.125,79.231H6.874V133.982z"/>
</g>
</svg>
