<?xml version="1.0" encoding="utf-8"?>
<!-- Generator: Adobe Illustrator 16.0.3, SVG Export Plug-In . SVG Version: 6.00 Build 0)  -->
<!DOCTYPE svg PUBLIC "-//W3C//DTD SVG 1.1//EN" "http://www.w3.org/Graphics/SVG/1.1/DTD/svg11.dtd">
<svg version="1.1" id="Ebene_1" xmlns="http://www.w3.org/2000/svg" xmlns:xlink="http://www.w3.org/1999/xlink" x="0px" y="0px"
	 width="90px" height="90px" viewBox="0 0 90 90" enable-background="new 0 0 90 90" xml:space="preserve">
<g>
	<path fill="#1A171B" d="M90,90H0V0h90V90z M0.642,89.358h88.717V0.642H0.642V89.358z"/>
</g>
<g>
	<path fill="#1A171B" d="M63.205,42.078c-2.194,0-4.047,1.853-4.047,4.047c0,2.212,1.815,4.013,4.047,4.013
		c2.231,0,4.046-1.801,4.046-4.013C67.251,43.931,65.398,42.078,63.205,42.078z"/>
	<path fill="#1A171B" d="M11.269,49.383l0.039,0.07c0.229,0.421,0.679,0.684,1.175,0.684c0.724,0,1.269-0.545,1.269-1.269
		c0-0.699-0.569-1.268-1.269-1.268c-1.182,0-2.248-0.495-3.01-1.285c0.05,1.255,0.164,2.494,0.342,3.713L11.269,49.383z"/>
	<path fill="#1A171B" d="M77.952,53.09v-9.362c0-0.91-0.71-1.65-1.582-1.65c-0.896,0-1.651,0.755-1.651,1.65v9.362h-2.951v-9.362
		c0.037-3.121,2.407-4.542,4.595-4.542c1.572,0,3.225,0.738,4.034,2.308C78.673,23.507,63.418,9.326,44.999,9.326
		c-17.97,0-32.922,13.501-35.241,30.864c0.728-0.623,1.674-0.996,2.725-0.996c1.624,0,3.127,0.933,3.83,2.377l0.039,0.078
		l-2.62,1.253l-0.039-0.072c-0.239-0.443-0.737-0.753-1.209-0.753c-0.7,0-1.269,0.6-1.269,1.337c0,0.676,0.593,1.269,1.269,1.269
		c2.327,0,4.221,1.877,4.221,4.185c0,2.328-1.894,4.221-4.221,4.221c-0.801,0-1.567-0.233-2.228-0.653
		c3.485,15.968,17.77,28.015,34.744,28.015c16.743,0,30.866-11.72,34.593-27.362H77.952z M27.471,53.09h-2.951v-2.78H21.29v2.78
		h-2.953v-9.362c0-2.5,2.034-4.533,4.533-4.533c2.538,0,4.602,2.034,4.602,4.533V53.09z M45.295,53.09h-2.883v-9.362
		c0-1.123-0.847-1.634-1.633-1.634c-0.787,0-1.633,0.511-1.633,1.634v9.362h-2.918v-9.362c0-1.123-0.846-1.634-1.633-1.634
		c-0.787,0-1.633,0.511-1.633,1.634v9.362H30.01v-9.362c0.035-2.542,2.041-4.533,4.566-4.533c1.189,0,2.256,0.41,3.093,1.185
		c0.87-0.775,1.938-1.185,3.093-1.185c2.542,0,4.533,1.991,4.533,4.533V53.09z M51.22,53.09c-1.656,0-3.161-0.961-3.832-2.448
		l-0.037-0.079l2.66-1.182l0.036,0.077c0.192,0.419,0.642,0.679,1.173,0.679c0.711,0,1.269-0.557,1.269-1.269
		c0-0.699-0.569-1.268-1.269-1.268c-2.329,0-4.223-1.878-4.223-4.187c0-2.328,1.894-4.221,4.223-4.221
		c1.624,0,3.125,0.933,3.827,2.377l0.039,0.079l-2.7,1.257l-0.032-0.086c-0.159-0.417-0.657-0.743-1.134-0.743
		c-0.719,0-1.305,0.6-1.305,1.337c0,0.688,0.598,1.269,1.305,1.269c2.286,0,4.218,1.917,4.218,4.185
		C55.438,51.197,53.545,53.09,51.22,53.09z M63.205,53.053c-3.839,0-6.964-3.108-6.964-6.929c0-3.821,3.125-6.93,6.964-6.93
		c3.84,0,6.965,3.108,6.965,6.93C70.169,49.945,67.045,53.053,63.205,53.053z"/>
	<path fill="#1A171B" d="M22.905,42.094c-0.778,0-1.615,0.511-1.615,1.634v3.701h3.231v-3.701
		C24.521,42.605,23.683,42.094,22.905,42.094z"/>
</g>
</svg>
